<svg xmlns="http://www.w3.org/2000/svg" width="37" height="37" viewBox="0 0 37 37">
  <g id="export-icon" transform="translate(-1787 -20)">
    <rect id="Rectangle_12" data-name="Rectangle 12" width="37" height="37" rx="18.5" transform="translate(1787 20)" fill="#f1f1f1"/>
    <g id="export" transform="translate(1794.616 31)">
      <path id="Path_775" data-name="Path 775" d="M15.591,23.348H13.1v1.431h2.491c.741,0,1.315.366,1.315.682v6.347c0,.315-.575.682-1.315.682H6.177c-.741,0-1.315-.366-1.315-.682V25.461c0-.315.575-.682,1.315-.682h2.49V23.348H6.177c-1.566,0-2.793.928-2.793,2.113v6.347c0,1.185,1.227,2.113,2.793,2.113h9.414c1.566,0,2.793-.928,2.793-2.113V25.461C18.384,24.276,17.157,23.348,15.591,23.348Z" transform="translate(0 -17.922)"/>
      <path id="Path_776" data-name="Path 776" d="M22.672,3.568a.713.713,0,0,0,.506-.21l.9-.9V9.743a.716.716,0,0,0,1.431,0V2.414l.944.944a.716.716,0,1,0,1.012-1.012L25.325.209A.712.712,0,0,0,24.819,0h-.011A.712.712,0,0,0,24.3.209L22.166,2.346a.716.716,0,0,0,.506,1.222Z" transform="translate(-13.905 0)"/>
    </g>
  </g>
</svg>
