<?xml version="1.0" encoding="utf-8"?>
<!-- Generator: Adobe Illustrator 27.0.0, SVG Export Plug-In . SVG Version: 6.00 Build 0)  -->
<svg version="1.1" id="Layer_1" xmlns="http://www.w3.org/2000/svg" xmlns:xlink="http://www.w3.org/1999/xlink" x="0px" y="0px"
	 viewBox="0 0 504.43 104.78" style="enable-background:new 0 0 504.43 104.78;" xml:space="preserve">
<style type="text/css">
	.st0{fill:#164CE9;}
	.st1{fill:none;}
	.st2{fill:#0A0A5F;}
	.st3{fill:#2E3191;}
	.st4{fill:#FFFFFF;}
</style>
<g>
	<g>
		<g>
			<path class="st4" d="M488.12,0.55H16.31c-8.9,0-16.14,7.24-16.14,16.14v71.4c0,8.9,7.24,16.14,16.14,16.14h471.82
				c8.9,0,16.14-7.24,16.14-16.14v-71.4C504.26,7.79,497.03,0.55,488.12,0.55z M16.31,100.29c-6.73,0-12.2-5.47-12.2-12.2v-71.4
				c0-6.73,5.47-12.2,12.2-12.2h76.63v95.77L16.31,100.29z"/>
		</g>
		<g>
			<path class="st4" d="M16.31,100.79L16.31,100.79c-7,0-12.7-5.7-12.7-12.7v-71.4c0-7,5.7-12.7,12.7-12.7h77.13v96.77L16.31,100.79
				z M16.31,4.99c-6.45,0-11.7,5.25-11.7,11.7v71.4c0,6.45,5.25,11.7,11.7,11.7l76.13-0.03V4.99H16.31z"/>
		</g>
	</g>
	<g>
		<g>
			<g>
				<rect x="21.11" y="19.64" class="st4" width="9.12" height="60.45"/>
			</g>
			<g>
				<path class="st4" d="M56.26,42.06H43.01V19.64h-9.12v60.45h8.95h0.17h13.25c10.5,0,19.02-8.51,19.02-19.02
					S66.76,42.06,56.26,42.06z M56.26,72.48H43.01V49.66h13.25c6.3,0,11.41,5.11,11.41,11.41C67.67,67.37,62.56,72.48,56.26,72.48z"
					/>
			</g>
		</g>
		<g>
			<path class="st4" d="M48.07,66.35c0,0-1.71-6.88,5-8.93c0,0,5.34-1.25,6.39-3.3c0,0,2.39,5.98-2.21,12.23c0,0-3.1,3.51-8.21,1.49
				c0,0-2.36,1.14-2.86,0.48c0,0-0.2-0.44,0.6-0.55c0,0,2.68-0.25,6.24-3.26c0,0,2.4-1.67,3.88-5.06
				C56.9,59.46,53.95,64.68,48.07,66.35z"/>
		</g>
	</g>
	<g>
		<path class="st2" d="M119.85,79.72l-3.41-5.75h-2.54v5.75h-1.38V65.96h4.13c1.54,0,2.7,0.37,3.49,1.1s1.19,1.7,1.19,2.89
			c0,1-0.29,1.85-0.86,2.55c-0.57,0.7-1.41,1.16-2.53,1.37l3.54,5.85H119.85z M113.9,72.85h2.78c1.08,0,1.89-0.26,2.43-0.79
			c0.54-0.52,0.82-1.23,0.82-2.11c0-0.91-0.26-1.6-0.79-2.1c-0.52-0.49-1.35-0.74-2.48-0.74h-2.76V72.85z"/>
		<path class="st2" d="M125.49,71.42c0.44-0.83,1.05-1.48,1.83-1.93c0.78-0.45,1.66-0.68,2.65-0.68c1.02,0,1.91,0.24,2.65,0.71
			c0.74,0.47,1.28,1.08,1.6,1.81v-2.36h1.38v10.75h-1.38v-2.38c-0.34,0.74-0.88,1.34-1.62,1.82s-1.62,0.72-2.65,0.72
			c-0.97,0-1.85-0.23-2.63-0.69c-0.78-0.46-1.39-1.11-1.83-1.95c-0.44-0.84-0.66-1.81-0.66-2.91
			C124.83,73.22,125.05,72.25,125.49,71.42z M133.68,72.06c-0.35-0.66-0.84-1.16-1.45-1.52c-0.61-0.35-1.28-0.53-2.02-0.53
			c-0.76,0-1.44,0.17-2.05,0.51c-0.6,0.34-1.08,0.84-1.43,1.49c-0.35,0.65-0.52,1.42-0.52,2.31c0,0.88,0.17,1.65,0.52,2.31
			s0.82,1.17,1.43,1.52c0.6,0.35,1.29,0.52,2.05,0.52c0.73,0,1.41-0.18,2.02-0.53c0.61-0.35,1.09-0.86,1.45-1.52
			c0.35-0.66,0.53-1.42,0.53-2.28C134.22,73.48,134.04,72.72,133.68,72.06z"/>
		<path class="st2" d="M154.29,68.97l-3.37,10.75h-1.38l-2.97-9.02l-2.97,9.02h-1.4l-3.37-10.75h1.4l2.68,9.35l3.01-9.35h1.38
			l2.97,9.37l2.66-9.37H154.29z"/>
		<path class="st2" d="M177.76,66.13v13.58h-1.38V68.87l-4.84,10.85h-1l-4.84-10.81v10.81h-1.38V66.13h1.46l5.26,11.77l5.26-11.77
			H177.76z"/>
		<path class="st2" d="M182.29,71.42c0.44-0.83,1.05-1.48,1.83-1.93c0.78-0.45,1.66-0.68,2.65-0.68c1.02,0,1.91,0.24,2.65,0.71
			c0.74,0.47,1.28,1.08,1.6,1.81v-2.36h1.38v10.75h-1.38v-2.38c-0.34,0.74-0.88,1.34-1.62,1.82s-1.62,0.72-2.65,0.72
			c-0.97,0-1.85-0.23-2.63-0.69c-0.78-0.46-1.39-1.11-1.83-1.95c-0.44-0.84-0.66-1.81-0.66-2.91
			C181.63,73.22,181.85,72.25,182.29,71.42z M190.49,72.06c-0.35-0.66-0.84-1.16-1.45-1.52c-0.61-0.35-1.28-0.53-2.02-0.53
			c-0.76,0-1.44,0.17-2.05,0.51s-1.08,0.84-1.43,1.49c-0.35,0.65-0.52,1.42-0.52,2.31c0,0.88,0.17,1.65,0.52,2.31
			s0.82,1.17,1.43,1.52c0.6,0.35,1.29,0.52,2.05,0.52c0.73,0,1.41-0.18,2.02-0.53c0.61-0.35,1.09-0.86,1.45-1.52
			c0.35-0.66,0.53-1.42,0.53-2.28C191.02,73.48,190.85,72.72,190.49,72.06z"/>
		<path class="st2" d="M198.72,70.13v6.67c0,0.66,0.12,1.11,0.37,1.36c0.25,0.25,0.69,0.37,1.32,0.37h1.26v1.18h-1.48
			c-0.97,0-1.69-0.23-2.17-0.68c-0.47-0.45-0.71-1.2-0.71-2.23v-6.67h-1.5v-1.16h1.5v-2.7h1.4v2.7h2.95v1.16H198.72z"/>
		<path class="st2" d="M215,74.87h-8.92c0.04,0.81,0.24,1.51,0.59,2.09c0.35,0.58,0.82,1.01,1.4,1.31c0.58,0.3,1.21,0.44,1.89,0.44
			c0.89,0,1.64-0.22,2.25-0.65c0.61-0.43,1.01-1.02,1.21-1.75h1.46c-0.26,1.05-0.82,1.91-1.68,2.57s-1.94,0.99-3.24,0.99
			c-1.01,0-1.92-0.23-2.72-0.68c-0.8-0.45-1.43-1.1-1.88-1.93c-0.45-0.83-0.68-1.81-0.68-2.92s0.22-2.09,0.67-2.93
			c0.45-0.84,1.07-1.48,1.87-1.93c0.8-0.45,1.71-0.67,2.74-0.67s1.92,0.22,2.69,0.67c0.77,0.45,1.36,1.05,1.77,1.8
			c0.41,0.75,0.62,1.59,0.62,2.51C215.04,74.26,215.02,74.62,215,74.87z M213.16,71.7c-0.33-0.56-0.79-0.99-1.37-1.28
			c-0.58-0.29-1.21-0.43-1.89-0.43c-1.02,0-1.9,0.33-2.62,0.98c-0.72,0.66-1.12,1.58-1.2,2.78h7.56
			C213.65,72.95,213.49,72.27,213.16,71.7z"/>
		<path class="st2" d="M221.7,69.32c0.62-0.37,1.39-0.55,2.29-0.55v1.44h-0.37c-1,0-1.8,0.27-2.4,0.81s-0.91,1.44-0.91,2.7v6h-1.38
			V68.97h1.38v1.91C220.61,70.21,221.08,69.69,221.7,69.32z"/>
		<path class="st2" d="M227.42,66.65c-0.2-0.2-0.3-0.44-0.3-0.73s0.1-0.53,0.3-0.72c0.2-0.19,0.43-0.29,0.71-0.29
			s0.51,0.1,0.71,0.29c0.2,0.19,0.3,0.43,0.3,0.72s-0.1,0.53-0.3,0.73c-0.2,0.2-0.43,0.3-0.71,0.3S227.62,66.84,227.42,66.65z
			 M228.82,68.97v10.75h-1.38V68.97H228.82z"/>
		<path class="st2" d="M233.35,71.42c0.44-0.83,1.05-1.48,1.83-1.93c0.78-0.45,1.66-0.68,2.65-0.68c1.02,0,1.91,0.24,2.65,0.71
			c0.74,0.47,1.28,1.08,1.6,1.81v-2.36h1.38v10.75h-1.38v-2.38c-0.34,0.74-0.88,1.34-1.62,1.82s-1.62,0.72-2.65,0.72
			c-0.97,0-1.85-0.23-2.63-0.69c-0.78-0.46-1.39-1.11-1.83-1.95c-0.44-0.84-0.66-1.81-0.66-2.91
			C232.69,73.22,232.91,72.25,233.35,71.42z M241.55,72.06c-0.35-0.66-0.84-1.16-1.45-1.52c-0.61-0.35-1.28-0.53-2.02-0.53
			c-0.76,0-1.44,0.17-2.05,0.51s-1.08,0.84-1.43,1.49c-0.35,0.65-0.52,1.42-0.52,2.31c0,0.88,0.17,1.65,0.52,2.31
			s0.82,1.17,1.43,1.52c0.6,0.35,1.29,0.52,2.05,0.52c0.73,0,1.41-0.18,2.02-0.53c0.61-0.35,1.09-0.86,1.45-1.52
			c0.35-0.66,0.53-1.42,0.53-2.28C242.08,73.48,241.91,72.72,241.55,72.06z"/>
		<path class="st2" d="M249.37,65.15v14.57h-1.38V65.15H249.37z"/>
		<path class="st2" d="M254.55,79.02c-0.78-0.57-1.22-1.35-1.31-2.33h1.42c0.07,0.6,0.35,1.09,0.86,1.47
			c0.5,0.37,1.18,0.56,2.04,0.56c0.75,0,1.33-0.18,1.76-0.53c0.43-0.35,0.64-0.79,0.64-1.32c0-0.37-0.12-0.67-0.35-0.91
			c-0.24-0.24-0.54-0.42-0.9-0.56c-0.36-0.14-0.85-0.29-1.47-0.44c-0.8-0.21-1.45-0.42-1.95-0.63c-0.5-0.21-0.92-0.52-1.27-0.94
			c-0.35-0.41-0.52-0.97-0.52-1.66c0-0.52,0.16-1.01,0.47-1.46c0.32-0.45,0.76-0.8,1.34-1.06c0.58-0.26,1.23-0.39,1.97-0.39
			c1.15,0,2.09,0.29,2.79,0.88c0.71,0.58,1.09,1.39,1.14,2.41h-1.38c-0.04-0.63-0.29-1.14-0.74-1.53s-1.07-0.58-1.86-0.58
			c-0.7,0-1.26,0.16-1.69,0.49c-0.43,0.33-0.65,0.74-0.65,1.22c0,0.42,0.13,0.76,0.38,1.03c0.26,0.27,0.57,0.48,0.95,0.63
			c0.38,0.15,0.89,0.32,1.54,0.5c0.77,0.21,1.39,0.41,1.85,0.61s0.85,0.49,1.18,0.87c0.33,0.38,0.5,0.89,0.51,1.52
			c0,0.58-0.16,1.09-0.47,1.54c-0.32,0.45-0.75,0.81-1.32,1.07c-0.56,0.26-1.21,0.39-1.95,0.39
			C256.34,79.87,255.33,79.59,254.55,79.02z"/>
		<path class="st2" d="M279.5,65.96v1.14h-6.06v5.14h5.12v1.14h-5.12v6.34h-1.38V65.96H279.5z"/>
		<path class="st2" d="M285.12,79.19c-0.81-0.45-1.44-1.1-1.91-1.93c-0.47-0.83-0.7-1.81-0.7-2.92s0.24-2.09,0.71-2.92
			c0.47-0.83,1.12-1.48,1.93-1.93c0.81-0.45,1.73-0.68,2.74-0.68s1.93,0.23,2.75,0.68c0.82,0.45,1.46,1.1,1.93,1.93
			c0.47,0.83,0.7,1.81,0.7,2.92c0,1.1-0.24,2.07-0.71,2.91s-1.12,1.49-1.95,1.94c-0.83,0.45-1.75,0.68-2.76,0.68
			C286.84,79.87,285.93,79.65,285.12,79.19z M289.82,78.19c0.6-0.32,1.09-0.81,1.47-1.46c0.37-0.65,0.56-1.45,0.56-2.39
			s-0.18-1.74-0.55-2.39c-0.37-0.65-0.85-1.14-1.46-1.46c-0.6-0.32-1.26-0.48-1.97-0.48s-1.37,0.16-1.97,0.48
			c-0.6,0.32-1.09,0.81-1.45,1.46c-0.36,0.65-0.54,1.45-0.54,2.39s0.18,1.74,0.54,2.39c0.36,0.65,0.84,1.14,1.44,1.46
			c0.6,0.32,1.25,0.48,1.96,0.48C288.56,78.67,289.21,78.51,289.82,78.19z"/>
		<path class="st2" d="M299.92,69.32c0.62-0.37,1.39-0.55,2.29-0.55v1.44h-0.37c-1,0-1.8,0.27-2.4,0.81
			c-0.6,0.54-0.91,1.44-0.91,2.7v6h-1.38V68.97h1.38v1.91C298.84,70.21,299.3,69.69,299.92,69.32z"/>
		<path class="st2" d="M319.87,65.96v1.14h-6.06v5.14h5.12v1.14h-5.12v6.34h-1.38V65.96H319.87z"/>
		<path class="st2" d="M325.49,79.19c-0.81-0.45-1.44-1.1-1.91-1.93c-0.47-0.83-0.7-1.81-0.7-2.92s0.24-2.09,0.71-2.92
			c0.47-0.83,1.12-1.48,1.93-1.93c0.81-0.45,1.73-0.68,2.74-0.68s1.93,0.23,2.75,0.68c0.82,0.45,1.46,1.1,1.93,1.93
			c0.47,0.83,0.7,1.81,0.7,2.92c0,1.1-0.24,2.07-0.71,2.91s-1.12,1.49-1.95,1.94c-0.83,0.45-1.75,0.68-2.76,0.68
			C327.21,79.87,326.3,79.65,325.49,79.19z M330.19,78.19c0.6-0.32,1.09-0.81,1.47-1.46c0.37-0.65,0.56-1.45,0.56-2.39
			s-0.18-1.74-0.55-2.39c-0.37-0.65-0.85-1.14-1.46-1.46c-0.6-0.32-1.26-0.48-1.97-0.48s-1.37,0.16-1.97,0.48
			c-0.6,0.32-1.09,0.81-1.45,1.46c-0.36,0.65-0.54,1.45-0.54,2.39s0.18,1.74,0.54,2.39c0.36,0.65,0.84,1.14,1.44,1.46
			c0.6,0.32,1.25,0.48,1.96,0.48C328.93,78.67,329.58,78.51,330.19,78.19z"/>
		<path class="st2" d="M339.51,79.19c-0.81-0.45-1.44-1.1-1.91-1.93c-0.47-0.83-0.7-1.81-0.7-2.92s0.24-2.09,0.71-2.92
			c0.47-0.83,1.12-1.48,1.93-1.93c0.81-0.45,1.73-0.68,2.74-0.68s1.93,0.23,2.75,0.68c0.82,0.45,1.46,1.1,1.93,1.93
			c0.47,0.83,0.7,1.81,0.7,2.92c0,1.1-0.24,2.07-0.71,2.91s-1.12,1.49-1.95,1.94c-0.83,0.45-1.75,0.68-2.76,0.68
			C341.22,79.87,340.32,79.65,339.51,79.19z M344.2,78.19c0.6-0.32,1.09-0.81,1.47-1.46c0.37-0.65,0.56-1.45,0.56-2.39
			s-0.18-1.74-0.55-2.39c-0.37-0.65-0.85-1.14-1.46-1.46c-0.6-0.32-1.26-0.48-1.97-0.48s-1.37,0.16-1.97,0.48
			c-0.6,0.32-1.09,0.81-1.45,1.46c-0.36,0.65-0.54,1.45-0.54,2.39s0.18,1.74,0.54,2.39c0.36,0.65,0.84,1.14,1.44,1.46
			c0.6,0.32,1.25,0.48,1.96,0.48C342.94,78.67,343.6,78.51,344.2,78.19z"/>
		<path class="st2" d="M351.58,71.42c0.45-0.83,1.06-1.48,1.84-1.93c0.78-0.45,1.66-0.68,2.65-0.68c0.95,0,1.8,0.23,2.56,0.69
			c0.76,0.46,1.32,1.06,1.67,1.79v-6.14h1.38v14.57h-1.38v-2.4c-0.33,0.75-0.87,1.36-1.61,1.84s-1.63,0.72-2.64,0.72
			c-0.98,0-1.87-0.23-2.65-0.69c-0.78-0.46-1.39-1.11-1.83-1.95c-0.44-0.84-0.66-1.81-0.66-2.91
			C350.91,73.22,351.14,72.25,351.58,71.42z M359.77,72.06c-0.35-0.66-0.84-1.16-1.45-1.52c-0.61-0.35-1.28-0.53-2.02-0.53
			c-0.76,0-1.44,0.17-2.05,0.51s-1.08,0.84-1.43,1.49c-0.35,0.65-0.52,1.42-0.52,2.31c0,0.88,0.17,1.65,0.52,2.31
			s0.82,1.17,1.43,1.52c0.6,0.35,1.29,0.52,2.05,0.52c0.74,0,1.41-0.18,2.02-0.53c0.61-0.35,1.09-0.86,1.45-1.52
			s0.53-1.42,0.53-2.28C360.3,73.48,360.13,72.72,359.77,72.06z"/>
		<path class="st2" d="M383.45,79.72l-1.87-1.91c-0.67,0.73-1.38,1.28-2.15,1.62c-0.76,0.35-1.62,0.52-2.58,0.52
			c-0.92,0-1.73-0.17-2.44-0.52c-0.71-0.35-1.26-0.84-1.65-1.47s-0.59-1.36-0.59-2.19c0-0.97,0.28-1.82,0.83-2.54
			c0.55-0.72,1.36-1.29,2.42-1.69c-0.46-0.51-0.79-0.99-1-1.43c-0.21-0.44-0.32-0.92-0.32-1.43c0-0.88,0.32-1.59,0.95-2.14
			c0.63-0.54,1.47-0.82,2.52-0.82c0.98,0,1.78,0.28,2.4,0.85c0.62,0.56,0.91,1.3,0.87,2.21h-1.38c0.01-0.59-0.17-1.06-0.54-1.4
			c-0.37-0.34-0.84-0.51-1.41-0.51c-0.6,0-1.09,0.17-1.47,0.5s-0.56,0.76-0.56,1.29c0,0.42,0.12,0.83,0.34,1.22s0.59,0.86,1.09,1.4
			l4.53,4.59c0.18-0.25,0.43-0.64,0.75-1.18l1.26-2.11h1.48l-1.5,2.58c-0.35,0.62-0.71,1.17-1.06,1.65l2.87,2.89H383.45z
			 M378.93,78.3c0.61-0.3,1.19-0.77,1.74-1.42l-4.39-4.45c-1.82,0.67-2.74,1.77-2.74,3.31c0,0.58,0.14,1.09,0.42,1.54
			c0.28,0.45,0.67,0.81,1.17,1.07c0.5,0.26,1.07,0.39,1.71,0.39C377.63,78.75,378.32,78.6,378.93,78.3z"/>
		<path class="st2" d="M405.66,79.72h-1.38l-7.62-11.57v11.57h-1.38V65.96h1.38l7.62,11.55V65.96h1.38V79.72z"/>
		<path class="st2" d="M419.47,68.97v10.75h-1.38v-1.89c-0.31,0.67-0.8,1.18-1.46,1.54c-0.66,0.35-1.39,0.53-2.21,0.53
			c-1.29,0-2.34-0.4-3.15-1.19s-1.22-1.95-1.22-3.45v-6.28h1.36v6.12c0,1.17,0.29,2.06,0.88,2.68c0.58,0.62,1.38,0.93,2.39,0.93
			c1.04,0,1.86-0.33,2.48-0.98c0.62-0.66,0.92-1.62,0.92-2.89v-5.85H419.47z"/>
		<path class="st2" d="M425.79,70.13v6.67c0,0.66,0.12,1.11,0.37,1.36c0.25,0.25,0.69,0.37,1.32,0.37h1.26v1.18h-1.48
			c-0.97,0-1.69-0.23-2.17-0.68c-0.47-0.45-0.71-1.2-0.71-2.23v-6.67h-1.5v-1.16h1.5v-2.7h1.4v2.7h2.95v1.16H425.79z"/>
		<path class="st2" d="M435.15,69.32c0.62-0.37,1.39-0.55,2.29-0.55v1.44h-0.37c-1,0-1.8,0.27-2.4,0.81
			c-0.6,0.54-0.91,1.44-0.91,2.7v6h-1.38V68.97h1.38v1.91C434.07,70.21,434.53,69.69,435.15,69.32z"/>
		<path class="st2" d="M440.87,66.65c-0.2-0.2-0.29-0.44-0.29-0.73s0.1-0.53,0.29-0.72c0.2-0.19,0.43-0.29,0.71-0.29
			s0.51,0.1,0.71,0.29c0.2,0.19,0.29,0.43,0.29,0.72s-0.1,0.53-0.29,0.73c-0.2,0.2-0.43,0.3-0.71,0.3S441.07,66.84,440.87,66.65z
			 M442.27,68.97v10.75h-1.38V68.97H442.27z"/>
		<path class="st2" d="M448.57,70.13v6.67c0,0.66,0.12,1.11,0.37,1.36c0.25,0.25,0.69,0.37,1.32,0.37h1.26v1.18h-1.48
			c-0.97,0-1.69-0.23-2.17-0.68c-0.47-0.45-0.71-1.2-0.71-2.23v-6.67h-1.5v-1.16h1.5v-2.7h1.4v2.7h2.95v1.16H448.57z"/>
		<path class="st2" d="M455.14,66.65c-0.2-0.2-0.29-0.44-0.29-0.73s0.1-0.53,0.29-0.72c0.2-0.19,0.43-0.29,0.71-0.29
			s0.51,0.1,0.71,0.29c0.2,0.19,0.29,0.43,0.29,0.72s-0.1,0.53-0.29,0.73c-0.2,0.2-0.43,0.3-0.71,0.3S455.34,66.84,455.14,66.65z
			 M456.54,68.97v10.75h-1.38V68.97H456.54z"/>
		<path class="st2" d="M463.02,79.19c-0.81-0.45-1.44-1.1-1.91-1.93c-0.47-0.83-0.7-1.81-0.7-2.92s0.24-2.09,0.71-2.92
			c0.47-0.83,1.12-1.48,1.93-1.93c0.81-0.45,1.73-0.68,2.74-0.68s1.93,0.23,2.75,0.68c0.82,0.45,1.46,1.1,1.93,1.93
			c0.47,0.83,0.7,1.81,0.7,2.92c0,1.1-0.24,2.07-0.71,2.91s-1.12,1.49-1.95,1.94c-0.83,0.45-1.75,0.68-2.76,0.68
			C464.74,79.87,463.83,79.65,463.02,79.19z M467.72,78.19c0.6-0.32,1.09-0.81,1.47-1.46c0.37-0.65,0.56-1.45,0.56-2.39
			s-0.18-1.74-0.55-2.39c-0.37-0.65-0.85-1.14-1.46-1.46c-0.6-0.32-1.26-0.48-1.97-0.48s-1.37,0.16-1.97,0.48
			c-0.6,0.32-1.09,0.81-1.45,1.46c-0.36,0.65-0.54,1.45-0.54,2.39s0.18,1.74,0.54,2.39c0.36,0.65,0.84,1.14,1.44,1.46
			c0.6,0.32,1.25,0.48,1.96,0.48C466.46,78.67,467.11,78.51,467.72,78.19z"/>
		<path class="st2" d="M483.25,69.96c0.81,0.79,1.22,1.95,1.22,3.45v6.3h-1.36v-6.14c0-1.17-0.29-2.06-0.88-2.68
			s-1.38-0.93-2.39-0.93c-1.04,0-1.86,0.33-2.48,0.98c-0.62,0.66-0.93,1.62-0.93,2.89v5.87h-1.38V68.97h1.38v1.83
			c0.34-0.66,0.83-1.16,1.48-1.51c0.64-0.35,1.37-0.52,2.19-0.52C481.38,68.77,482.43,69.17,483.25,69.96z"/>
	</g>
	<g>
		<path class="st2" d="M117.9,19.97v27.48h-5.51V19.97H117.9z"/>
		<path class="st2" d="M147.23,47.45h-5.51l-12.48-18.86v18.86h-5.51V19.93h5.51l12.48,18.9v-18.9h5.51V47.45z"/>
		<path class="st2" d="M172.19,28.23c-0.63-1.15-1.5-2.03-2.6-2.64c-1.1-0.6-2.39-0.91-3.86-0.91c-1.63,0-3.07,0.37-4.33,1.1
			c-1.26,0.74-2.24,1.79-2.95,3.15c-0.71,1.37-1.06,2.94-1.06,4.72c0,1.84,0.36,3.44,1.08,4.8c0.72,1.37,1.73,2.42,3.01,3.15
			c1.29,0.74,2.78,1.1,4.49,1.1c2.1,0,3.82-0.56,5.16-1.67c1.34-1.12,2.22-2.67,2.64-4.67h-9.45v-4.21h14.88v4.8
			c-0.37,1.92-1.16,3.69-2.36,5.31c-1.21,1.63-2.76,2.93-4.67,3.92c-1.9,0.98-4.04,1.48-6.4,1.48c-2.65,0-5.05-0.6-7.18-1.79
			c-2.14-1.19-3.82-2.85-5.04-4.98s-1.83-4.54-1.83-7.24c0-2.7,0.61-5.12,1.83-7.26c1.22-2.14,2.9-3.81,5.04-5
			c2.14-1.19,4.52-1.79,7.15-1.79c3.1,0,5.79,0.75,8.07,2.26c2.28,1.51,3.86,3.63,4.72,6.36H172.19z"/>
		<path class="st2" d="M197.85,47.45l-6.06-10.71h-2.6v10.71h-5.51V19.97H194c2.13,0,3.94,0.37,5.43,1.12
			c1.5,0.75,2.62,1.76,3.37,3.03s1.12,2.7,1.12,4.27c0,1.81-0.53,3.44-1.58,4.9c-1.05,1.46-2.61,2.46-4.68,3.01l6.57,11.14H197.85z
			 M189.19,32.6h4.61c1.5,0,2.61-0.36,3.35-1.08c0.73-0.72,1.1-1.73,1.1-3.01c0-1.26-0.37-2.24-1.1-2.93
			c-0.73-0.7-1.85-1.04-3.35-1.04h-4.61V32.6z"/>
		<path class="st2" d="M214.82,24.42v6.89h9.25v4.37h-9.25v7.28h10.43v4.49h-15.94V19.93h15.94v4.49H214.82z"/>
		<path class="st2" d="M247.87,21.66c2.19,1.13,3.88,2.74,5.08,4.82c1.19,2.09,1.79,4.51,1.79,7.26c0,2.76-0.6,5.16-1.79,7.22
			c-1.2,2.06-2.89,3.66-5.08,4.78c-2.19,1.13-4.73,1.69-7.62,1.69h-9.61V19.97h9.61C243.14,19.97,245.68,20.53,247.87,21.66z
			 M246.75,40.4c1.57-1.57,2.36-3.79,2.36-6.65c0-2.86-0.79-5.1-2.36-6.71c-1.57-1.61-3.81-2.42-6.69-2.42h-3.9v18.15h3.9
			C242.94,42.76,245.17,41.97,246.75,40.4z"/>
		<path class="st2" d="M264.78,19.97v27.48h-5.51V19.97H264.78z"/>
		<path class="st2" d="M276.12,24.42v6.89h9.25v4.37h-9.25v7.28h10.43v4.49h-15.94V19.93h15.94v4.49H276.12z"/>
		<path class="st2" d="M315.44,47.45h-5.51l-12.48-18.86v18.86h-5.51V19.93h5.51l12.48,18.9v-18.9h5.51V47.45z"/>
		<path class="st2" d="M339.97,19.97v4.45h-7.32v23.03h-5.51V24.42h-7.32v-4.45H339.97z"/>
		<path class="st2" d="M348.69,46.74c-1.54-0.66-2.75-1.6-3.64-2.83c-0.89-1.23-1.35-2.69-1.38-4.37h5.91
			c0.08,1.13,0.48,2.02,1.2,2.68c0.72,0.66,1.71,0.98,2.97,0.98c1.29,0,2.3-0.31,3.03-0.92c0.73-0.62,1.1-1.42,1.1-2.42
			c0-0.81-0.25-1.48-0.75-2.01c-0.5-0.52-1.12-0.94-1.87-1.24s-1.78-0.64-3.09-1c-1.78-0.52-3.23-1.04-4.35-1.56
			c-1.12-0.51-2.07-1.29-2.87-2.32c-0.8-1.04-1.2-2.42-1.2-4.15c0-1.63,0.41-3.04,1.22-4.25c0.81-1.21,1.96-2.13,3.42-2.78
			s3.15-0.96,5.04-0.96c2.83,0,5.14,0.69,6.91,2.07s2.75,3.3,2.93,5.77h-6.06c-0.05-0.94-0.45-1.73-1.2-2.34s-1.74-0.93-2.97-0.93
			c-1.08,0-1.94,0.28-2.58,0.83c-0.64,0.55-0.96,1.35-0.96,2.4c0,0.74,0.24,1.35,0.73,1.83c0.49,0.49,1.09,0.88,1.81,1.18
			c0.72,0.3,1.74,0.65,3.05,1.04c1.78,0.52,3.24,1.05,4.37,1.57s2.1,1.31,2.91,2.36c0.81,1.05,1.22,2.43,1.22,4.13
			c0,1.47-0.38,2.83-1.14,4.09c-0.76,1.26-1.88,2.26-3.35,3.01c-1.47,0.75-3.21,1.12-5.24,1.12
			C351.95,47.72,350.23,47.39,348.69,46.74z"/>
		<path class="st2" d="M397.92,35.67c1,1.26,1.5,2.7,1.5,4.33c0,1.47-0.36,2.76-1.08,3.88c-0.72,1.12-1.77,1.99-3.13,2.62
			c-1.37,0.63-2.98,0.94-4.84,0.94h-11.85V19.97h11.34c1.86,0,3.47,0.3,4.82,0.91c1.35,0.6,2.38,1.44,3.07,2.52
			c0.7,1.08,1.04,2.3,1.04,3.66c0,1.6-0.43,2.94-1.28,4.02c-0.85,1.08-1.99,1.84-3.41,2.28C395.65,33.64,396.92,34.41,397.92,35.67z
			 M384.02,31.3h5.04c1.31,0,2.32-0.3,3.03-0.89c0.71-0.59,1.06-1.44,1.06-2.54c0-1.1-0.35-1.95-1.06-2.56
			c-0.71-0.6-1.72-0.91-3.03-0.91h-5.04V31.3z M392.7,42.01c0.75-0.63,1.12-1.52,1.12-2.68c0-1.18-0.39-2.11-1.18-2.78
			s-1.85-1-3.19-1h-5.43v7.4h5.55C390.91,42.96,391.96,42.64,392.7,42.01z"/>
		<path class="st2" d="M421.07,42.21h-10.94l-1.81,5.24h-5.79l9.88-27.52h6.42l9.88,27.52h-5.83L421.07,42.21z M419.57,37.8
			l-3.98-11.5l-3.98,11.5H419.57z"/>
		<path class="st2" d="M456.3,47.45h-5.51l-12.48-18.86v18.86h-5.51V19.93h5.51l12.48,18.9v-18.9h5.51V47.45z"/>
		<path class="st2" d="M477.64,47.45l-10-12.24v12.24h-5.51V19.97h5.51v12.32l10-12.32h6.65l-11.34,13.62l11.65,13.86H477.64z"/>
	</g>
</g>
</svg>
